G04 #@! TF.GenerationSoftware,KiCad,Pcbnew,7.0.2-6a45011f42~172~ubuntu20.04.1*
G04 #@! TF.CreationDate,2023-06-13T08:43:18+02:00*
G04 #@! TF.ProjectId,inverter,696e7665-7274-4657-922e-6b696361645f,rev?*
G04 #@! TF.SameCoordinates,Original*
G04 #@! TF.FileFunction,Soldermask,Bot*
G04 #@! TF.FilePolarity,Negative*
%FSLAX46Y46*%
G04 Gerber Fmt 4.6, Leading zero omitted, Abs format (unit mm)*
G04 Created by KiCad (PCBNEW 7.0.2-6a45011f42~172~ubuntu20.04.1) date 2023-06-13 08:43:18*
%MOMM*%
%LPD*%
G01*
G04 APERTURE LIST*
G04 Aperture macros list*
%AMRoundRect*
0 Rectangle with rounded corners*
0 $1 Rounding radius*
0 $2 $3 $4 $5 $6 $7 $8 $9 X,Y pos of 4 corners*
0 Add a 4 corners polygon primitive as box body*
4,1,4,$2,$3,$4,$5,$6,$7,$8,$9,$2,$3,0*
0 Add four circle primitives for the rounded corners*
1,1,$1+$1,$2,$3*
1,1,$1+$1,$4,$5*
1,1,$1+$1,$6,$7*
1,1,$1+$1,$8,$9*
0 Add four rect primitives between the rounded corners*
20,1,$1+$1,$2,$3,$4,$5,0*
20,1,$1+$1,$4,$5,$6,$7,0*
20,1,$1+$1,$6,$7,$8,$9,0*
20,1,$1+$1,$8,$9,$2,$3,0*%
G04 Aperture macros list end*
%ADD10C,0.100000*%
%ADD11RoundRect,0.300000X-0.750000X0.600000X-0.750000X-0.600000X0.750000X-0.600000X0.750000X0.600000X0*%
%ADD12O,2.100000X1.800000*%
%ADD13C,3.200000*%
%ADD14C,2.200000*%
%ADD15C,1.903400*%
%ADD16O,4.100000X5.100000*%
%ADD17O,4.100000X4.100000*%
%ADD18RoundRect,0.300000X0.600000X0.725000X-0.600000X0.725000X-0.600000X-0.725000X0.600000X-0.725000X0*%
%ADD19O,1.800000X2.050000*%
%ADD20RoundRect,0.050000X-0.500000X-0.500000X0.500000X-0.500000X0.500000X0.500000X-0.500000X0.500000X0*%
%ADD21C,1.100000*%
%ADD22C,1.400000*%
%ADD23O,1.600000X3.100000*%
%ADD24O,2.500000X1.700000*%
%ADD25C,1.600000*%
%ADD26O,1.700000X2.500000*%
%ADD27RoundRect,0.050000X-0.850000X0.850000X-0.850000X-0.850000X0.850000X-0.850000X0.850000X0.850000X0*%
%ADD28O,1.800000X1.800000*%
%ADD29RoundRect,0.300000X0.750000X-0.600000X0.750000X0.600000X-0.750000X0.600000X-0.750000X-0.600000X0*%
%ADD30RoundRect,0.050000X0.875000X1.125000X-0.875000X1.125000X-0.875000X-1.125000X0.875000X-1.125000X0*%
%ADD31O,1.850000X2.350000*%
%ADD32RoundRect,0.050000X0.850000X0.850000X-0.850000X0.850000X-0.850000X-0.850000X0.850000X-0.850000X0*%
%ADD33C,0.900000*%
%ADD34RoundRect,0.050000X-1.250000X-80.000000X1.250000X-80.000000X1.250000X80.000000X-1.250000X80.000000X0*%
%ADD35RoundRect,0.300000X-0.725000X0.600000X-0.725000X-0.600000X0.725000X-0.600000X0.725000X0.600000X0*%
%ADD36O,2.050000X1.800000*%
%ADD37RoundRect,0.050000X-0.500000X0.500000X-0.500000X-0.500000X0.500000X-0.500000X0.500000X0.500000X0*%
%ADD38O,1.100000X1.100000*%
G04 APERTURE END LIST*
D10*
X94400000Y-128187500D02*
X88200000Y-128187500D01*
X88200000Y-121987500D01*
X94400000Y-121987500D01*
X94400000Y-128187500D01*
G36*
X94400000Y-128187500D02*
G01*
X88200000Y-128187500D01*
X88200000Y-121987500D01*
X94400000Y-121987500D01*
X94400000Y-128187500D01*
G37*
X122600000Y-128587500D02*
X116200000Y-128587500D01*
X116200000Y-122187500D01*
X122600000Y-122187500D01*
X122600000Y-128587500D01*
G36*
X122600000Y-128587500D02*
G01*
X116200000Y-128587500D01*
X116200000Y-122187500D01*
X122600000Y-122187500D01*
X122600000Y-128587500D01*
G37*
X80400000Y-124587500D02*
X74600000Y-124587500D01*
X74600000Y-118587500D01*
X80400000Y-118587500D01*
X80400000Y-124587500D01*
G36*
X80400000Y-124587500D02*
G01*
X74600000Y-124587500D01*
X74600000Y-118587500D01*
X80400000Y-118587500D01*
X80400000Y-124587500D01*
G37*
X135875000Y-124800000D02*
X129675000Y-124800000D01*
X129675000Y-118900000D01*
X135875000Y-118900000D01*
X135875000Y-124800000D01*
G36*
X135875000Y-124800000D02*
G01*
X129675000Y-124800000D01*
X129675000Y-118900000D01*
X135875000Y-118900000D01*
X135875000Y-124800000D01*
G37*
X67500000Y-128475000D02*
X61400000Y-128475000D01*
X61400000Y-122475000D01*
X67500000Y-122475000D01*
X67500000Y-128475000D01*
G36*
X67500000Y-128475000D02*
G01*
X61400000Y-128475000D01*
X61400000Y-122475000D01*
X67500000Y-122475000D01*
X67500000Y-128475000D01*
G37*
X107700000Y-124700000D02*
X101500000Y-124700000D01*
X101500000Y-118800000D01*
X107700000Y-118800000D01*
X107700000Y-124700000D01*
G36*
X107700000Y-124700000D02*
G01*
X101500000Y-124700000D01*
X101500000Y-118800000D01*
X107700000Y-118800000D01*
X107700000Y-124700000D01*
G37*
D11*
G04 #@! TO.C,J401*
X53000000Y-25000000D03*
D12*
X53000000Y-27500000D03*
G04 #@! TD*
D13*
G04 #@! TO.C,H107*
X47550000Y-27000000D03*
G04 #@! TD*
D14*
G04 #@! TO.C,J101*
X136450000Y-179680000D03*
X47550000Y-179680000D03*
D15*
X56150000Y-176850000D03*
X56150000Y-168650001D03*
X61150000Y-168650001D03*
D16*
X60540000Y-175631001D03*
D15*
X66150000Y-176850000D03*
D17*
X65290000Y-169000000D03*
D15*
X71150000Y-168650001D03*
D16*
X70540000Y-175631001D03*
D15*
X76150000Y-176850000D03*
D17*
X75290000Y-169000000D03*
D15*
X81150000Y-168650001D03*
D16*
X80540000Y-175631001D03*
D15*
X86150000Y-176850000D03*
D17*
X85290000Y-169000000D03*
D15*
X91150000Y-168650001D03*
D16*
X90540000Y-175631001D03*
D15*
X96150000Y-176850000D03*
D17*
X96010000Y-169000000D03*
D15*
X101150000Y-168650001D03*
D16*
X100540000Y-175631001D03*
D15*
X106150000Y-176850000D03*
D17*
X106010000Y-169000000D03*
D15*
X111150000Y-168650001D03*
D16*
X111090000Y-175631001D03*
D17*
X116170000Y-169000000D03*
D15*
X116150000Y-176850001D03*
D16*
X121250000Y-175631001D03*
D15*
X121150000Y-168650001D03*
D17*
X126170000Y-169000000D03*
D15*
X126150000Y-176850001D03*
D16*
X131250000Y-175631001D03*
D15*
X131150000Y-168650001D03*
G04 #@! TD*
D18*
G04 #@! TO.C,J901*
X135500000Y-163000000D03*
D19*
X133000000Y-163000000D03*
X130500000Y-163000000D03*
X128000000Y-163000000D03*
X125500000Y-163000000D03*
G04 #@! TD*
D20*
G04 #@! TO.C,J404*
X91950000Y-33850000D03*
D21*
X92966000Y-35630000D03*
X93982000Y-33850000D03*
X94998000Y-35630000D03*
X96014000Y-33850000D03*
X97030000Y-35630000D03*
X98046000Y-33850000D03*
X99062000Y-35630000D03*
D22*
X88965500Y-37914000D03*
X91251500Y-37914000D03*
X99760500Y-37914000D03*
X102046500Y-37914000D03*
D23*
X85600000Y-27500000D03*
X105539000Y-27500000D03*
G04 #@! TD*
D13*
G04 #@! TO.C,H104*
X82000000Y-128000000D03*
G04 #@! TD*
D24*
G04 #@! TO.C,U401*
X112470000Y-23440000D03*
X112470000Y-25980000D03*
X112470000Y-28520000D03*
X112470000Y-31060000D03*
X112470000Y-33600000D03*
X112470000Y-36140000D03*
X112470000Y-38680000D03*
X112470000Y-41220000D03*
X112470000Y-43760000D03*
X112470000Y-46300000D03*
X112470000Y-48840000D03*
X112470000Y-51380000D03*
X112470000Y-53920000D03*
X112470000Y-56460000D03*
X112470000Y-59000000D03*
X112470000Y-61540000D03*
X112470000Y-64080000D03*
X112470000Y-66620000D03*
X112470000Y-69160000D03*
X112470000Y-71700000D03*
X131050000Y-71700000D03*
X131050000Y-69160000D03*
X131050000Y-66620000D03*
X131050000Y-64080000D03*
X131050000Y-61540000D03*
X131050000Y-59000000D03*
X131050000Y-56460000D03*
X131050000Y-53920000D03*
X131050000Y-51380000D03*
X131050000Y-48840000D03*
X131050000Y-46300000D03*
X131050000Y-43760000D03*
X131050000Y-41220000D03*
X131050000Y-38680000D03*
X131050000Y-36140000D03*
X131050000Y-33600000D03*
X131050000Y-31060000D03*
X131050000Y-28520000D03*
X131050000Y-25980000D03*
X131050000Y-23440000D03*
D25*
X115410000Y-31060000D03*
X115410000Y-33600000D03*
X115410000Y-36140000D03*
X115410000Y-38680000D03*
X115410000Y-41220000D03*
X115410000Y-53920000D03*
X115410000Y-56460000D03*
X115410000Y-59000000D03*
X115410000Y-61540000D03*
X115410000Y-64080000D03*
X115410000Y-66620000D03*
X115410000Y-69160000D03*
D26*
X115410000Y-72100000D03*
X117950000Y-72100000D03*
X120490000Y-72100000D03*
X123030000Y-72100000D03*
X125570000Y-72100000D03*
X128110000Y-72100000D03*
D25*
X128110000Y-69160000D03*
G04 #@! TD*
D27*
G04 #@! TO.C,JP403*
X97325000Y-47400000D03*
D28*
X94785000Y-47400000D03*
G04 #@! TD*
D13*
G04 #@! TO.C,H108*
X136450000Y-27000000D03*
G04 #@! TD*
D29*
G04 #@! TO.C,J402*
X57000000Y-27500000D03*
D12*
X57000000Y-25000000D03*
G04 #@! TD*
D30*
G04 #@! TO.C,PS501*
X88020000Y-81000000D03*
D31*
X85480000Y-81000000D03*
X82940000Y-81000000D03*
X80400000Y-81000000D03*
G04 #@! TD*
D13*
G04 #@! TO.C,H101*
X64000000Y-110000000D03*
G04 #@! TD*
G04 #@! TO.C,H102*
X90000000Y-110000000D03*
G04 #@! TD*
D32*
G04 #@! TO.C,JP401*
X94260000Y-44200000D03*
D28*
X94260000Y-41660000D03*
G04 #@! TD*
D13*
G04 #@! TO.C,H106*
X138000000Y-128000000D03*
G04 #@! TD*
G04 #@! TO.C,H103*
X120000000Y-110000000D03*
G04 #@! TD*
D20*
G04 #@! TO.C,J403*
X66950000Y-33850000D03*
D21*
X67966000Y-35630000D03*
X68982000Y-33850000D03*
X69998000Y-35630000D03*
X71014000Y-33850000D03*
X72030000Y-35630000D03*
X73046000Y-33850000D03*
X74062000Y-35630000D03*
D22*
X63965500Y-37914000D03*
X66251500Y-37914000D03*
X74760500Y-37914000D03*
X77046500Y-37914000D03*
D23*
X60600000Y-27500000D03*
X80539000Y-27500000D03*
G04 #@! TD*
D13*
G04 #@! TO.C,H105*
X112000000Y-128000000D03*
G04 #@! TD*
D33*
G04 #@! TO.C,N101*
X43250000Y-24500000D03*
X43250000Y-34500000D03*
X43250000Y-44500000D03*
X43250000Y-54500000D03*
X43250000Y-64500000D03*
X43250000Y-74500000D03*
X43250000Y-84500000D03*
X43250000Y-94500000D03*
D34*
X43250000Y-102000000D03*
D33*
X43250000Y-104500000D03*
X43250000Y-114500000D03*
X43250000Y-124500000D03*
X43250000Y-134500000D03*
X43250000Y-144500000D03*
X43250000Y-154500000D03*
X43250000Y-164500000D03*
X43250000Y-174500000D03*
X140750000Y-24250000D03*
X140750000Y-34250000D03*
X140750000Y-44250000D03*
X140750000Y-54250000D03*
X140750000Y-64250000D03*
X140750000Y-74250000D03*
X140750000Y-84250000D03*
X140750000Y-94250000D03*
D34*
X140750000Y-102000000D03*
D33*
X140750000Y-104250000D03*
X140750000Y-114250000D03*
X140750000Y-124250000D03*
X140750000Y-134250000D03*
X140750000Y-144250000D03*
X140750000Y-154250000D03*
X140750000Y-164250000D03*
X140750000Y-174250000D03*
G04 #@! TD*
D35*
G04 #@! TO.C,J301*
X109200000Y-76600000D03*
D36*
X109200000Y-79100000D03*
X109200000Y-81600000D03*
X109200000Y-84100000D03*
G04 #@! TD*
D32*
G04 #@! TO.C,J501*
X49050000Y-37800000D03*
D28*
X49050000Y-35260000D03*
X49050000Y-32720000D03*
G04 #@! TD*
D37*
G04 #@! TO.C,TH402*
X98000000Y-81000000D03*
D38*
X99270000Y-81000000D03*
G04 #@! TD*
D37*
G04 #@! TO.C,TH401*
X94300000Y-81000000D03*
D38*
X95570000Y-81000000D03*
G04 #@! TD*
D37*
G04 #@! TO.C,TH403*
X102330000Y-81000000D03*
D38*
X103600000Y-81000000D03*
G04 #@! TD*
M02*
