M48
; DRILL file {KiCad 7.0.2-6a45011f42~172~ubuntu20.04.1} date lun. 12 juin 2023 15:09:11
; FORMAT={-:-/ absolute / metric / decimal}
; #@! TF.CreationDate,2023-06-12T15:09:11+02:00
; #@! TF.GenerationSoftware,Kicad,Pcbnew,7.0.2-6a45011f42~172~ubuntu20.04.1
; #@! TF.FileFunction,Plated,1,6,PTH
FMAT,2
METRIC
; #@! TA.AperFunction,Plated,PTH,ViaDrill
T1C0.400
; #@! TA.AperFunction,Plated,PTH,ComponentDrill
T2C0.400
; #@! TA.AperFunction,Plated,PTH,ComponentDrill
T3C0.650
; #@! TA.AperFunction,Plated,PTH,ComponentDrill
T4C0.700
; #@! TA.AperFunction,Plated,PTH,ComponentDrill
T5C0.762
; #@! TA.AperFunction,Plated,PTH,ComponentDrill
T6C0.900
; #@! TA.AperFunction,Plated,PTH,ComponentDrill
T7C0.950
; #@! TA.AperFunction,Plated,PTH,ComponentDrill
T8C1.000
; #@! TA.AperFunction,Plated,PTH,ComponentDrill
T9C1.075
; #@! TA.AperFunction,Plated,PTH,ComponentDrill
T10C1.295
; #@! TA.AperFunction,Plated,PTH,ComponentDrill
T11C2.700
; #@! TA.AperFunction,Plated,PTH,ComponentDrill
T12C3.000
%
G90
G05
T1
X48.1Y-56.34
X49.2Y-56.34
X50.2Y-88.6
X50.2Y-90.2
X50.2Y-91.8
X50.2Y-93.4
X50.2Y-100.8
X50.2Y-102.4
X50.2Y-104.0
X50.2Y-105.6
X50.2Y-113.0
X50.2Y-114.6
X50.2Y-116.2
X50.2Y-117.8
X50.2Y-125.0
X50.2Y-126.6
X50.2Y-128.2
X50.2Y-129.8
X50.2Y-149.6
X50.2Y-151.2
X50.2Y-152.8
X50.2Y-154.4
X50.4Y-56.34
X50.4Y-137.8
X50.4Y-139.4
X50.4Y-141.0
X50.4Y-142.6
X50.961Y-76.839
X50.961Y-77.839
X51.011Y-74.539
X51.011Y-75.639
X52.2Y-56.34
X52.6Y-49.69
X52.6Y-88.6
X52.6Y-90.2
X52.6Y-91.8
X52.6Y-93.4
X52.6Y-100.8
X52.6Y-102.4
X52.6Y-104.0
X52.6Y-105.6
X52.6Y-107.2
X52.6Y-108.6
X52.6Y-110.2
X52.6Y-111.6
X52.6Y-113.0
X52.6Y-114.6
X52.6Y-116.2
X52.6Y-117.8
X52.6Y-119.4
X52.6Y-121.0
X52.6Y-122.8
X52.6Y-125.0
X52.6Y-126.6
X52.6Y-128.2
X52.6Y-129.8
X52.6Y-149.6
X52.6Y-151.2
X52.6Y-152.8
X52.6Y-154.4
X52.8Y-137.8
X52.8Y-139.4
X52.8Y-141.0
X52.8Y-142.6
X53.4Y-56.34
X53.6Y-32.0
X53.6Y-33.1
X53.6Y-49.69
X53.85Y-36.6
X54.6Y-49.69
X54.6Y-56.34
X56.0Y-159.0
X56.1Y-32.0
X56.1Y-33.1
X56.25Y-36.6
X58.4Y-146.8
X58.4Y-148.4
X58.4Y-150.0
X59.0Y-133.0
X59.0Y-134.6
X59.0Y-136.2
X59.0Y-137.8
X59.6Y-113.9
X59.6Y-115.5
X59.6Y-117.1
X60.0Y-146.8
X60.0Y-148.4
X60.0Y-150.0
X60.111Y-77.839
X60.111Y-79.039
X60.111Y-80.239
X60.111Y-81.339
X60.2Y-144.0
X60.211Y-74.389
X60.211Y-75.389
X60.211Y-76.389
X60.6Y-30.6
X60.6Y-32.0
X60.6Y-133.0
X60.6Y-134.6
X60.6Y-136.2
X60.6Y-137.8
X61.0Y-96.0
X61.0Y-98.0
X61.2Y-113.9
X61.2Y-115.5
X61.2Y-117.1
X61.5Y-101.0
X61.6Y-146.8
X61.6Y-148.4
X61.6Y-150.0
X62.0Y-122.99
X62.0Y-124.59
X62.0Y-126.19
X62.0Y-127.79
X62.2Y-42.2
X62.2Y-133.0
X62.2Y-134.6
X62.2Y-136.2
X62.2Y-137.8
X62.2Y-91.4
X62.5Y-101.0
X62.8Y-113.9
X62.8Y-115.5
X62.8Y-117.1
X63.2Y-146.8
X63.2Y-148.4
X63.2Y-150.0
X63.5Y-101.0
X63.55Y-58.5
X63.587Y-144.412
X63.6Y-122.99
X63.6Y-124.59
X63.6Y-126.19
X63.6Y-127.79
X63.6Y-42.2
X63.6Y-137.2
X63.8Y-133.0
X63.8Y-134.6
X64.0Y-96.0
X64.0Y-98.0
X64.05Y-58.0
X64.05Y-59.0
X64.2Y-105.0
X64.5Y-89.2
X65.2Y-122.99
X65.2Y-124.59
X65.2Y-126.19
X65.2Y-127.79
X66.0Y-115.2
X66.8Y-122.99
X66.8Y-124.59
X66.8Y-126.19
X66.8Y-127.79
X66.8Y-85.8
X67.2Y-136.0
X67.7Y-47.0
X67.75Y-42.6
X67.95Y-67.0
X68.0Y-158.974
X68.0Y-160.574
X68.0Y-162.174
X68.0Y-163.774
X68.2Y-112.0
X68.2Y-114.2
X68.5Y-99.5
X68.9Y-62.34
X69.0Y-42.6
X69.0Y-47.0
X69.025Y-67.002
X69.5Y-119.525
X69.5Y-124.99
X69.6Y-158.974
X69.6Y-160.574
X69.6Y-162.174
X69.6Y-163.774
X70.0Y-60.74
X70.0Y-61.84
X70.0Y-79.0
X70.1Y-73.84
X70.371Y-42.633
X70.4Y-44.0
X70.4Y-45.4
X70.4Y-47.0
X70.5Y-85.2
X70.8Y-106.8
X70.8Y-154.576
X71.0Y-101.4
X71.2Y-89.2
X71.2Y-135.2
X71.2Y-158.974
X71.2Y-160.574
X71.2Y-162.174
X71.2Y-163.774
X71.55Y-55.9
X71.85Y-73.84
X72.0Y-85.2
X72.0Y-153.6
X72.4Y-135.8
X72.8Y-147.4
X72.8Y-158.974
X72.8Y-160.574
X72.8Y-162.174
X72.8Y-163.774
X73.0Y-129.6
X73.6Y-73.84
X74.8Y-147.2
X75.2Y-119.2
X75.2Y-120.8
X75.2Y-122.4
X75.2Y-124.0
X75.4Y-136.817
X75.55Y-56.174
X76.2Y-106.4
X76.2Y-108.0
X76.4Y-86.3
X76.4Y-130.0
X76.8Y-119.2
X76.8Y-120.8
X76.8Y-122.4
X76.8Y-124.0
X76.939Y-158.824
X77.2Y-87.2
X77.6Y-145.4
X77.8Y-76.3
X77.8Y-77.4
X77.8Y-78.4
X77.8Y-106.4
X77.8Y-108.0
X78.4Y-119.2
X78.4Y-120.8
X78.4Y-122.4
X78.4Y-124.0
X78.4Y-147.4
X78.8Y-151.8
X79.275Y-137.4
X79.4Y-36.939
X79.4Y-106.4
X79.4Y-108.0
X79.8Y-85.7
X79.941Y-131.95
X80.0Y-119.2
X80.0Y-120.8
X80.0Y-122.4
X80.0Y-124.0
X80.2Y-151.6
X80.5Y-97.5
X80.7Y-132.6
X80.8Y-149.5
X80.9Y-46.04
X81.0Y-106.4
X81.0Y-108.0
X81.2Y-147.4
X81.4Y-85.8
X81.5Y-160.0
X81.6Y-42.0
X82.124Y-64.5
X82.13Y-66.25
X82.13Y-68.1
X82.13Y-69.65
X82.2Y-91.0
X82.7Y-138.2
X83.0Y-24.0
X83.0Y-31.0
X83.0Y-50.0
X83.3Y-142.6
X83.4Y-136.662
X83.5Y-131.9
X83.65Y-46.5
X83.7Y-47.8
X84.0Y-125.6
X84.487Y-40.512
X85.05Y-62.0
X85.05Y-66.2
X85.2Y-46.5
X85.2Y-47.8
X85.8Y-70.4
X85.8Y-125.6
X86.1Y-72.5
X86.8Y-114.0
X86.8Y-115.6
X86.8Y-117.2
X86.8Y-158.8
X86.8Y-160.4
X86.8Y-162.0
X86.8Y-163.6
X87.0Y-133.0
X87.0Y-134.6
X87.0Y-136.2
X87.0Y-137.8
X87.1Y-72.5
X87.227Y-63.724
X87.4Y-149.2
X87.6Y-56.0
X87.8Y-52.0
X87.8Y-96.0
X87.8Y-97.8
X88.05Y-64.765
X88.1Y-72.5
X88.4Y-101.0
X88.4Y-114.0
X88.4Y-115.6
X88.4Y-117.2
X88.4Y-158.8
X88.4Y-160.4
X88.4Y-162.0
X88.4Y-163.6
X88.6Y-41.6
X88.6Y-133.0
X88.6Y-134.6
X88.6Y-136.2
X88.6Y-137.8
X88.8Y-90.124
X88.8Y-91.8
X89.0Y-52.0
X89.0Y-56.0
X89.0Y-70.2
X89.0Y-122.8
X89.0Y-124.4
X89.0Y-126.0
X89.0Y-127.6
X89.4Y-101.0
X89.55Y-44.9
X89.55Y-46.1
X90.0Y-114.0
X90.0Y-115.6
X90.0Y-117.2
X90.0Y-145.0
X90.0Y-146.0
X90.0Y-158.8
X90.0Y-160.4
X90.0Y-162.0
X90.0Y-163.6
X90.2Y-133.0
X90.2Y-134.6
X90.2Y-136.2
X90.2Y-137.8
X90.4Y-101.0
X90.6Y-122.8
X90.6Y-124.4
X90.6Y-126.0
X90.6Y-127.6
X90.85Y-46.1
X91.0Y-96.0
X91.0Y-98.0
X91.2Y-104.5
X91.6Y-158.8
X91.6Y-160.4
X91.6Y-162.0
X91.6Y-163.6
X91.8Y-60.2
X91.8Y-133.0
X91.8Y-134.6
X92.0Y-136.8
X92.0Y-145.59
X92.2Y-66.0
X92.2Y-122.8
X92.2Y-124.4
X92.2Y-126.0
X92.2Y-127.6
X92.25Y-46.1
X93.062Y-65.012
X93.6Y-115.0
X93.8Y-122.8
X93.8Y-124.4
X93.8Y-126.0
X93.8Y-127.6
X93.8Y-151.8
X95.15Y-48.9
X95.2Y-136.6
X95.2Y-147.8
X95.5Y-99.5
X95.6Y-112.2
X95.8Y-114.4
X95.85Y-43.6
X95.88Y-61.093
X96.0Y-84.675
X96.2Y-79.4
X96.25Y-44.6
X96.4Y-124.4
X96.6Y-119.4
X97.272Y-60.976
X97.5Y-62.6
X97.5Y-84.675
X97.8Y-101.6
X97.8Y-106.4
X98.0Y-74.0
X98.6Y-89.174
X99.2Y-61.9
X99.4Y-45.4
X99.725Y-84.675
X99.753Y-50.7
X100.2Y-79.4
X100.8Y-70.8
X101.0Y-136.8
X101.141Y-45.849
X101.2Y-84.675
X101.2Y-131.5
X101.8Y-83.4
X102.2Y-119.36
X102.2Y-120.96
X102.2Y-122.56
X102.2Y-124.16
X102.4Y-139.1
X102.75Y-45.7
X102.9Y-44.2
X103.0Y-42.0
X103.15Y-47.625
X103.2Y-154.4
X103.3Y-75.5
X103.4Y-106.2
X103.4Y-107.8
X103.4Y-137.0
X103.8Y-119.36
X103.8Y-120.96
X103.8Y-122.56
X103.8Y-124.16
X104.4Y-79.4
X104.8Y-147.4
X104.8Y-158.8
X104.8Y-160.4
X104.8Y-162.0
X104.8Y-163.6
X105.0Y-106.2
X105.0Y-107.8
X105.4Y-119.36
X105.4Y-120.96
X105.4Y-122.56
X105.4Y-124.16
X105.5Y-130.7
X106.0Y-24.0
X106.0Y-31.0
X106.0Y-69.2
X106.05Y-53.085
X106.1Y-136.6
X106.4Y-158.8
X106.4Y-160.4
X106.4Y-162.0
X106.4Y-163.6
X106.6Y-106.2
X106.6Y-107.8
X107.0Y-119.36
X107.0Y-120.96
X107.0Y-122.56
X107.0Y-124.16
X107.1Y-87.5
X107.2Y-130.9
X107.5Y-97.5
X108.0Y-136.3
X108.0Y-158.8
X108.0Y-160.4
X108.0Y-162.0
X108.0Y-163.6
X108.2Y-42.4
X108.2Y-106.2
X108.2Y-107.8
X108.4Y-43.8
X108.4Y-147.2
X108.8Y-88.2
X109.55Y-137.85
X109.6Y-158.8
X109.6Y-160.4
X109.6Y-162.0
X109.6Y-163.6
X109.8Y-125.6
X110.0Y-86.2
X110.0Y-140.0
X110.4Y-138.7
X111.3Y-143.0
X112.0Y-148.0
X112.0Y-152.2
X112.0Y-154.0
X113.55Y-85.85
X114.0Y-125.6
X114.0Y-133.2
X114.0Y-134.8
X114.0Y-136.4
X114.0Y-138.0
X114.4Y-92.0
X115.0Y-114.0
X115.0Y-115.6
X115.0Y-117.2
X115.312Y-82.731
X115.6Y-133.2
X115.6Y-134.8
X115.6Y-136.4
X115.6Y-138.0
X116.0Y-96.0
X116.0Y-98.0
X116.5Y-101.0
X116.6Y-114.0
X116.6Y-115.6
X116.6Y-117.2
X116.8Y-91.8
X117.0Y-123.0
X117.0Y-124.6
X117.0Y-126.2
X117.0Y-127.8
X117.2Y-133.2
X117.2Y-134.8
X117.2Y-136.4
X117.2Y-138.0
X117.4Y-145.6
X117.5Y-101.0
X117.8Y-82.4
X118.2Y-114.0
X118.2Y-115.6
X118.2Y-117.2
X118.4Y-50.4
X118.421Y-100.921
X118.524Y-42.899
X118.6Y-123.0
X118.6Y-124.6
X118.6Y-126.2
X118.6Y-127.8
X118.8Y-133.2
X118.8Y-134.8
X118.8Y-146.2
X119.0Y-28.0
X119.0Y-96.0
X119.0Y-98.0
X119.2Y-49.5
X119.2Y-104.5
X119.263Y-43.739
X119.424Y-76.357
X119.6Y-137.4
X120.0Y-51.6
X120.0Y-56.0
X120.2Y-123.0
X120.2Y-124.6
X120.2Y-126.2
X120.2Y-127.8
X120.224Y-63.468
X120.426Y-78.376
X121.0Y-62.298
X121.2Y-51.2
X121.4Y-53.0
X121.4Y-115.2
X121.6Y-79.1
X121.8Y-76.501
X121.8Y-123.0
X121.8Y-124.6
X121.8Y-126.2
X121.8Y-127.8
X121.944Y-137.344
X122.3Y-84.7
X122.395Y-79.764
X122.6Y-52.8
X123.0Y-40.0
X123.2Y-154.6
X123.5Y-86.3
X123.5Y-99.5
X123.6Y-79.9
X123.8Y-112.0
X123.8Y-114.4
X124.0Y-67.0
X124.0Y-85.2
X124.0Y-158.0
X124.4Y-119.2
X124.4Y-124.2
X124.7Y-76.1
X124.8Y-83.2
X124.8Y-84.4
X125.0Y-28.0
X125.024Y-74.897
X125.4Y-149.399
X125.8Y-106.5
X126.0Y-40.0
X126.0Y-50.0
X126.0Y-101.0
X126.2Y-89.0
X126.6Y-160.4
X126.724Y-137.212
X127.0Y-77.3
X127.8Y-129.5
X128.0Y-54.0
X128.0Y-59.0
X128.0Y-76.4
X128.2Y-160.4
X129.656Y-147.737
X129.8Y-78.0
X129.8Y-84.424
X130.4Y-119.4
X130.4Y-121.0
X130.4Y-122.6
X130.4Y-124.2
X130.426Y-147.1
X130.6Y-91.3
X130.7Y-77.275
X130.7Y-92.4
X130.8Y-137.2
X130.8Y-160.4
X131.0Y-106.2
X131.0Y-107.8
X131.0Y-130.2
X131.2Y-74.6
X131.312Y-145.488
X131.6Y-146.6
X131.8Y-91.3
X131.8Y-131.2
X132.0Y-119.4
X132.0Y-121.0
X132.0Y-122.6
X132.0Y-124.2
X132.2Y-74.8
X132.2Y-92.4
X132.2Y-144.6
X132.6Y-106.2
X132.6Y-107.8
X132.6Y-160.4
X133.1Y-145.4
X133.375Y-131.213
X133.4Y-137.0
X133.6Y-119.4
X133.6Y-121.0
X133.6Y-122.6
X133.6Y-124.2
X134.2Y-62.8
X134.2Y-64.0
X134.2Y-106.2
X134.2Y-107.8
X134.345Y-24.6
X134.374Y-51.374
X134.4Y-52.6
X134.4Y-54.8
X134.4Y-55.8
X134.8Y-58.8
X134.8Y-60.0
X135.0Y-42.0
X135.2Y-119.4
X135.2Y-121.0
X135.2Y-122.6
X135.2Y-124.2
X135.6Y-138.1
X135.6Y-160.4
X135.8Y-106.2
X135.8Y-107.8
X136.0Y-83.8
X136.0Y-97.5
X136.0Y-132.3
X136.8Y-32.2
X136.842Y-136.941
X136.9Y-87.7
X137.0Y-35.4
X137.0Y-132.3
X137.0Y-155.0
X137.2Y-160.4
X137.3Y-84.1
X137.4Y-31.2
X137.4Y-147.4
X138.1Y-35.9
X138.4Y-143.2
T2
X43.25Y-24.5
X43.25Y-34.5
X43.25Y-44.5
X43.25Y-54.5
X43.25Y-64.5
X43.25Y-74.5
X43.25Y-84.5
X43.25Y-94.5
X43.25Y-104.5
X43.25Y-114.5
X43.25Y-124.5
X43.25Y-134.5
X43.25Y-144.5
X43.25Y-154.5
X43.25Y-164.5
X43.25Y-174.5
X140.75Y-24.25
X140.75Y-34.25
X140.75Y-44.25
X140.75Y-54.25
X140.75Y-64.25
X140.75Y-74.25
X140.75Y-84.25
X140.75Y-94.25
X140.75Y-104.25
X140.75Y-114.25
X140.75Y-124.25
X140.75Y-134.25
X140.75Y-144.25
X140.75Y-154.25
X140.75Y-164.25
X140.75Y-174.25
T3
X94.3Y-81.0
X95.57Y-81.0
X98.0Y-81.0
X99.27Y-81.0
X102.33Y-81.0
X103.6Y-81.0
T4
X66.95Y-33.85
X67.966Y-35.63
X68.982Y-33.85
X69.998Y-35.63
X71.014Y-33.85
X72.03Y-35.63
X73.046Y-33.85
X74.062Y-35.63
X91.95Y-33.85
X92.966Y-35.63
X93.982Y-33.85
X94.998Y-35.63
X96.014Y-33.85
X97.03Y-35.63
X98.046Y-33.85
X99.062Y-35.63
T5
X43.25Y-102.0
X140.75Y-102.125
T6
X63.965Y-37.914
X66.251Y-37.914
X74.76Y-37.914
X77.046Y-37.914
X88.965Y-37.914
X91.251Y-37.914
X99.76Y-37.914
X102.046Y-37.914
T7
X109.2Y-76.6
X109.2Y-79.1
X109.2Y-81.6
X109.2Y-84.1
X125.5Y-163.0
X128.0Y-163.0
X130.5Y-163.0
X133.0Y-163.0
X135.5Y-163.0
T8
X49.05Y-32.72
X49.05Y-35.26
X49.05Y-37.8
X53.0Y-25.0
X53.0Y-27.5
X57.0Y-25.0
X57.0Y-27.5
X94.26Y-41.66
X94.26Y-44.2
X94.785Y-47.4
X97.325Y-47.4
X112.87Y-23.44
X112.87Y-25.98
X112.87Y-28.52
X112.87Y-31.06
X112.87Y-33.6
X112.87Y-36.14
X112.87Y-38.68
X112.87Y-41.22
X112.87Y-43.76
X112.87Y-46.3
X112.87Y-48.84
X112.87Y-51.38
X112.87Y-53.92
X112.87Y-56.46
X112.87Y-59.0
X112.87Y-61.54
X112.87Y-64.08
X112.87Y-66.62
X112.87Y-69.16
X112.87Y-71.7
X115.41Y-31.06
X115.41Y-33.6
X115.41Y-36.14
X115.41Y-38.68
X115.41Y-41.22
X115.41Y-53.92
X115.41Y-56.46
X115.41Y-59.0
X115.41Y-61.54
X115.41Y-64.08
X115.41Y-66.62
X115.41Y-69.16
X115.41Y-71.7
X117.95Y-71.7
X120.49Y-71.7
X123.03Y-71.7
X125.57Y-71.7
X128.11Y-69.16
X128.11Y-71.7
X130.65Y-23.44
X130.65Y-25.98
X130.65Y-28.52
X130.65Y-31.06
X130.65Y-33.6
X130.65Y-36.14
X130.65Y-38.68
X130.65Y-41.22
X130.65Y-43.76
X130.65Y-46.3
X130.65Y-48.84
X130.65Y-51.38
X130.65Y-53.92
X130.65Y-56.46
X130.65Y-59.0
X130.65Y-61.54
X130.65Y-64.08
X130.65Y-66.62
X130.65Y-69.16
X130.65Y-71.7
T9
X80.4Y-81.0
X82.94Y-81.0
X85.48Y-81.0
X88.02Y-81.0
T10
X56.15Y-168.65
X56.15Y-176.85
X61.15Y-168.65
X66.15Y-176.85
X71.15Y-168.65
X76.15Y-176.85
X81.15Y-168.65
X86.15Y-176.85
X91.15Y-168.65
X96.15Y-176.85
X101.15Y-168.65
X106.15Y-176.85
X111.15Y-168.65
X116.15Y-176.85
X121.15Y-168.65
X126.15Y-176.85
X131.15Y-168.65
T11
X47.55Y-27.0
X64.0Y-110.0
X82.0Y-128.0
X90.0Y-110.0
X112.0Y-128.0
X120.0Y-110.0
X136.45Y-27.0
X138.0Y-128.0
T8
X60.6Y-26.8G85X60.6Y-28.2
G05
X80.539Y-26.8G85X80.539Y-28.2
G05
X85.6Y-26.8G85X85.6Y-28.2
G05
X105.539Y-26.8G85X105.539Y-28.2
G05
T12
X60.54Y-176.131G85X60.54Y-175.131
G05
X65.29Y-169.0G85X65.29Y-169.0
G05
X70.54Y-176.131G85X70.54Y-175.131
G05
X75.29Y-169.0G85X75.29Y-169.0
G05
X80.54Y-176.131G85X80.54Y-175.131
G05
X85.29Y-169.0G85X85.29Y-169.0
G05
X90.54Y-176.131G85X90.54Y-175.131
G05
X96.01Y-169.0G85X96.01Y-169.0
G05
X100.54Y-176.131G85X100.54Y-175.131
G05
X106.01Y-169.0G85X106.01Y-169.0
G05
X111.09Y-176.131G85X111.09Y-175.131
G05
X116.17Y-169.0G85X116.17Y-169.0
G05
X121.25Y-176.131G85X121.25Y-175.131
G05
X126.17Y-169.0G85X126.17Y-169.0
G05
X131.25Y-176.131G85X131.25Y-175.131
G05
T0
M30
